# xmcd
#
# Track frame offsets: 
#        150
#        10649
#        20184
#        34298
#        45808
#        59186
#        71787
#        86416
#        103054
#        114718
#        131869
#        146872
#        160793
#        169997
#        182264
#        194625
#        212056
#        227226
#        247855
#        264116
#        283476
#        298970
#        311783
#        327151
#        337791
#
# Disc length: 4686 seconds
#
# Revision: 0
# Processed by: cddbd v1.5.2PL0 Copyright (c) Steve Scherf et al.
# Submitted via: ExactAudioCopyFreeDBPlugin 1.0
#
DISCID=81124c19
DTITLE=Memphis Slim - The Blues - Starbcd020
DYEAR=2013
DGENRE=Blues
TTITLE0=Gotta Find My Baby
TTITLE1=Rock Me Woman
TTITLE2=Messin' Around
TTITLE3=Nobody Loves Me (Every Day I Have The Blues)
TTITLE4=Harlem Bound
TTITLE5=Rock Me Baby
TTITLE6=Whiskey Drinking Blues
TTITLE7=Sitting On Top Of The World
TTITLE8=ieBoogie Woogie
TTITLE9=ChicagoChicago
TTITLE10=888 Boogie
TTITLE11=Goin' Down The River
TTITLE12=Steppin' Out
TTITLE13=Mother Earth
TTITLE14=Whiskey And Gin Blues
TTITLE15=Three Women Blues
TTITLE16=Beer Drinking Woman
TTITLE17=Late Afternoon Blues
TTITLE18=44 Blues
TTITLE19=Highway 51 Blues
TTITLE20=Boogie After Midnight
TTITLE21=Maybe I'll Loan You A Dime
TTITLE22=Walkin' The Boogie
TTITLE23=San Juan Blues
TTITLE24=In The Evening When The Sun Goes Down
EXTD=
EXTT0=
EXTT1=
EXTT2=
EXTT3=
EXTT4=
EXTT5=
EXTT6=
EXTT7=
EXTT8=
EXTT9=
EXTT10=
EXTT11=
EXTT12=
EXTT13=
EXTT14=
EXTT15=
EXTT16=
EXTT17=
EXTT18=
EXTT19=
EXTT20=
EXTT21=
EXTT22=
EXTT23=
EXTT24=
PLAYORDER=
